<svg version="1.1" width="512" height="512">
   <path
      id="icon"
      fill="#a37acc"
      d="m 127.99449,32.01903 c -52.936165,0 -95.994905,43.06038 -95.994905,95.9949 0.003,86.49492 0.0284,172.68868 0.0285,255.97216 0,52.93614 43.06038,95.99488 95.994915,95.99488 h 255.98165 c 52.93615,0 95.9949,-43.06036 95.9949,-95.99488 -0.003,-86.5016 -0.0284,-172.68218 -0.0285,-255.97216 0,-52.93614 -43.06036,-95.9949 -95.9949,-95.9949 z"/>
   <path
      id="plus"
      fill="#ffffff"
      d="m 240.00204,160.00985 h 32.00067 c 8.83626,0 16.00034,7.16408 16.00034,16.00033 l -0.008,47.99389 h 47.99628 c 8.83626,0 16.00032,7.16408 16.00032,16.00034 v 31.99118 c 0,8.83626 -7.16406,16.00033 -16.00032,16.00033 h -47.9939 v 47.99389 c 0,8.83626 -7.16408,16.00034 -16.00034,16.00034 h -32.00067 c -8.83626,0 -16.00034,-7.16408 -16.00034,-16.00034 l 0.008,-47.99389 H 176.0078 c -8.83626,0 -16.00032,-7.16407 -16.00032,-16.00033 v -31.99118 c 0,-8.83626 7.16406,-16.00034 16.00032,-16.00034 h 47.99389 v -47.99389 c 0,-8.83625 7.16409,-16.00033 16.00035,-16.00033 z"/>
</svg>