<svg version="1.1" width="32" height="32">
  <path
     id="head"
     fill="#2b2b2b"
     d="m 17.521003,0.87080736 c -0.523974,0.004132 -1.063574,0.0265857 -1.617311,0.0661166 C 12.168985,1.2035423 9.0688617,2.857523 7.3102448,5.0717468 7.0620004,10.538968 6.3077486,29.51029 4.8334195,30.877517 c 2.4897185,0.557624 5.9406275,-0.473983 9.1642525,-1.114709 3.952064,-0.781854 7.134602,-1.126422 10.106158,1.382565 1.087145,0.917915 2.122938,0.741446 3.07696,-0.137319 C 27.03991,30.458528 26.898586,29.888129 26.740014,29.22291 25.588001,24.390153 27.746589,21.41833 29.089691,17.50334 30.581443,12.712071 29.709269,7.4513555 26.560312,4.2156232 24.140521,1.7291488 21.188822,0.84185969 17.521003,0.87080736 Z"/>
  <path
     id="eye"
     fill="#000000"
     d="M 12.230488,12.926274 A 2.5218191,2.5218191 0 0 1 9.7086687,15.448093 2.5218191,2.5218191 0 0 1 7.1868496,12.926274 2.5218191,2.5218191 0 0 1 9.7086687,10.404455 2.5218191,2.5218191 0 0 1 12.230488,12.926274 Z" />
  <path
     id="face"
     fill="#0099ff"
     d="m 7.4345125,4.9879959 c -0.066323,0.00599 -0.089686,0.034772 -0.1135853,0.064422 L 7.2412457,5.1643074 C 6.8649821,5.7722342 5.0015294,8.9270905 5.5052643,10.663843 c 0.5238931,1.797538 0.6636327,2.665996 -0.2017402,3.453313 -0.9119717,0.856962 -3.2644739,3.81019 -3.3397287,3.914435 -0.034815,0.02902 -0.8692718,0.733584 -0.8374747,1.622397 0.046845,0.55011 0.3576833,1.042094 0.8323891,1.324025 l 1.4087889,0.847647 c 0,0 0.6839801,0.319037 -0.1525771,2.576848 l -0.030519,0.08137 0.052557,0.06951 c 0.2499154,0.298049 0.5521975,0.547489 0.8917251,0.737453 l -0.2169977,0.08985 c -0.2378781,0.105941 -0.407927,0.323457 -0.4543393,0.57979 -0.04813,0.297621 0.061697,0.598043 0.2898958,0.795093 0.2262765,0.1977 0.3822371,0.463014 0.4475577,0.756102 0.1029316,0.564743 0.3263281,1.093034 0.5780949,1.608835 0.2718165,0.556875 0.1961459,1.236938 0.061028,1.756324 0.6744696,0.153502 1.3079404,0.174688 1.9292447,0.127147 0.345515,-0.02645 1.5622235,-0.290975 2.2801708,-1.376579 1.4019664,-2.27937 0.6777488,-5.009515 0.9680134,-7.413522 0.203322,-2.480922 2.245574,-3.915226 3.22784,-5.596166 0.724357,-1.260977 1.344927,-2.799317 1.327416,-4.326391 C 14.520198,8.2011482 10.455906,6.1893306 10.409754,6.1662265 8.2235629,5.1589476 7.6334846,4.969972 7.4345125,4.9879959 Z m 0.8273036,6.4455091 c 2.7932919,0.31266 3.5832099,1.475474 3.6177579,1.52746 l -0.02204,0.0085 c -0.05781,0.08103 -0.869324,1.061765 -3.3905884,1.420656 L 8.4330429,14.140919 8.544933,14.117189 C 7.9920194,12.915902 8.2277726,12.052986 8.3754005,11.711534 l -0.1424052,-0.02373 z"/>
</svg>
