<svg version="1.1" width="32" height="32">
  <path
    id="icon"
    fill="#a37acc"
    d="m 7.99966,2.00119 c -3.30851,0 -5.99969,2.69127 -5.99969,5.99968 1.9e-4,5.40593 0.002,10.79304 0.002,15.99826 0,3.30851 2.69127,5.99968 5.99968,5.99968 H 24.0005 c 3.30851,0 5.99968,-2.69127 5.99968,-5.99968 -1.9e-4,-5.40635 -0.002,-10.79264 -0.002,-15.99826 0,-3.30851 -2.69127,-5.99968 -5.99968,-5.99968 z"/>
  <path
    id="plus"
    fill="#ffffff"
    d="m 15.00013,10.00062 h 2.00004 c 0.55227,0 1.00002,0.44775 1.00002,1.00002 l -5e-4,2.99961 h 2.99977 c 0.55226,0 1.00002,0.44776 1.00002,1.00003 v 1.99944 c 0,0.55227 -0.44776,1.00003 -1.00002,1.00003 h -2.99962 v 2.99961 c 0,0.55227 -0.44776,1.00002 -1.00002,1.00002 h -2.00004 c -0.55227,0 -1.00003,-0.44775 -1.00003,-1.00002 l 5e-4,-2.99961 h -2.99976 c -0.55227,0 -1.00002,-0.44776 -1.00002,-1.00003 v -1.99944 c 0,-0.55227 0.44775,-1.00003 1.00002,-1.00003 h 2.99962 v -2.99961 c 0,-0.55227 0.44775,-1.00002 1.00002,-1.00002 z"/>
</svg>
