<svg version="1.1" width="32" height="32">
  <path
     id="feather-4"
     fill="#ffffff"
     d="m 5.8755103,26.887344 c 2.9442901,0.501075 8.5885757,1.148707 11.5677357,1.148707 4.043127,0 6.383393,-2.979025 6.383393,-3.192035 -6.383393,0.212902 -13.78795,-0.08263 -16.1276752,-0.295535 -1.7915126,-0.155211 -2.5914047,0.20257 -2.7126833,0.828672 -0.1212785,0.626103 -0.1258074,1.23521 0.8892298,1.510191 z"/>
  <path
     id="feather-3"
     fill="#ccf0ff"
     d="M 7.6989638,24.548481 C 11.954965,24.335579 18.507348,23.35422 22.125267,22.928904 c 5.319426,-0.638191 7.022151,-4.894219 6.809277,-5.107093 -10.001177,2.340942 -18.47066,3.629996 -21.2364052,3.84287 -1.8665234,0.154503 -2.286942,0.571388 -2.247264,1.636052 0.02186,0.58655 0.4902429,1.30842 2.248089,1.247748 z"/>
  <path
     id="feather-2"
     fill="#70cbf7"
     d="M 7.6981388,21.664681 C 11.86734,20.660164 19.358981,18.672903 23.189368,17.395927 28.721669,15.480868 30.21152,11.012534 29.998645,10.799659 L 7.2302776,18.885777 c -1.9995469,0.632783 -2.4468531,1.148656 -2.2896426,2.085596 0.1652725,0.984989 1.7286921,0.962668 2.7575038,0.693308 z"/>
  <path
     id="feather-1"
     fill="#0c9de6"
     d="M 29.146607,2.7139473 C 18.081464,9.9489729 6.80401,14.629389 3.3985595,16.756916 c -3.4043677,1.915059 0.49021,2.935955 0.382813,7.429688 -0.06466,2.705669 0.267469,2.388832 2.0937505,2.701171 0.43611,0.07422 1.021444,0.154353 1.558594,0.232422 0.03125,-1.056614 0.07704,-2.064545 0.0957,-2.845703 0.05136,-2.14882 -0.521728,-3.70666 -1.070313,-4.884766 C 6.6633798,19.1912 6.8521178,19.070149 7.230588,18.885822 11.9118,16.970764 22.550784,11.650068 25.316529,9.5225409 28.508563,6.9692649 29.359616,2.7139473 29.146607,2.7139473 Z"/>
</svg>
